<svg xmlns="http://www.w3.org/2000/svg" width="150" height="150" viewBox="0 0 200 200"><g width="200" height="200"><path d="M148.5 65.1c-15.9-27.6-51.3-37.1-78.9-21.1 -27.6 15.9-37.1 51.3-21.1 78.9 15.9 27.6 51.3 37.1 78.9 21.1C155 128.1 164.5 92.7 148.5 65.1zM72.8 103.7l2.9-13.6c0.1-0.4 0.2-0.9 0.4-1.6 0.2-0.7 0.3-1.3 0.3-1.6l-7.4 16.9h-4.1l-0.2-16.9c-0.1 0.4-0.2 0.9-0.3 1.6 -0.1 0.7-0.3 1.3-0.3 1.6l-2.9 13.6h-3.9l4.3-20.2h6.1l0.3 15.8 7-15.8h6.1l-4.3 20.2H72.8zM97.3 91.4l-0.8 3.5h-9.8l-1.1 5.2h11.2l-0.8 3.6H80.8l4.3-20.2h14.8l-0.8 3.6H88.4l-0.9 4.3H97.3zM115.6 103.7h-4.2l-5.2-14.3 -3 14.3h-3.9l4.3-20.2h4.4l5 14.1 3-14.1h3.9L115.6 103.7zM137.4 95.9c-0.5 2.1-1.1 3.8-2.1 5 -1.7 2.2-4.3 3.3-7.8 3.3s-5.6-1.1-6.4-3.3c-0.4-1.2-0.4-2.9 0.1-5l2.6-12.4h4.3l-2.6 12.4c-0.3 1.4-0.3 2.4-0.1 3 0.3 1.1 1.3 1.7 3 1.7 1.7 0 2.9-0.6 3.7-1.7 0.5-0.6 0.8-1.6 1.1-3l2.6-12.4h4.3L137.4 95.9z"/></g><g data-name="Frame 1" transform="translate(-26 -25)rotate(45 90 135)" width="200" height="200"><animate attributeName="display" values="inline;none;none;none" keyTimes="0;0.33;0.66;1" dur="1.5s" begin="0s" repeatCount="indefinite"/><polygon points="142.6 31.5 143.6 52.1 124.2 41.2"/><polygon points="64.6 31.4 83 40.9 63.8 52.1"/><polygon points="25.5 98.9 42.9 87.7 43.1 110"/><polygon points="64.4 166.5 63.4 145.9 82.8 156.8"/><polygon points="142.4 166.6 124 157.1 143.2 145.9"/><polygon points="181.5 99.1 164.1 110.3 163.9 88"/><polygon points="185.5 51.7 166.9 87 145.5 49.8"/><polygon points="103.5 4.3 124.8 38 81.9 38"/><polygon points="21.5 51.6 61.4 50.1 39.9 87.2"/><polygon points="21.5 146.3 40.1 111 61.5 148.2"/><polygon points="103.5 193.7 82.2 160 125.1 160"/><polygon points="185.5 146.4 145.6 147.9 167.1 110.8"/></g><g data-name="Frame 2" transform="translate(-26 -25)rotate(45 90 135)" width="200" height="200"><animate attributeName="display" values="none;inline;none;none" keyTimes="0;0.33;0.66;1" dur="1.5s" begin="0s" repeatCount="indefinite"/><polygon points="103.2 21 114.5 38.3 92.3 38.6"/><polygon points="35.8 60.2 56.5 59.1 45.6 78.5"/><polygon points="36.1 138.2 45.5 119.8 56.8 138.9"/><polygon points="103.8 177 92.5 159.7 114.7 159.4"/><polygon points="171.2 137.8 150.5 138.9 161.4 119.5"/><polygon points="170.9 59.8 161.5 78.2 150.2 59.1"/><polygon points="150.5 16.8 152.2 56.6 115 35.3"/><polygon points="55.8 17.2 91.2 35.6 54.1 57.2"/><polygon points="8.8 99.4 42.4 78 42.6 120.9"/><polygon points="56.5 181.2 54.8 141.4 92 162.7"/><polygon points="151.2 180.8 115.8 162.4 152.9 140.8"/><polygon points="198.2 98.6 164.6 120 164.4 77.1"/></g><g data-name="Frame 3" transform="translate(-26 -25)rotate(45 90 135)" width="200" height="200"><animate attributeName="display" values="none;none;inline;none" keyTimes="0;0.33;0.66;1" dur="1.5s" begin="0s" repeatCount="indefinite"/><polygon points="83.2 20.4 99.1 36.5 75.4 41.7"/><polygon points="46.6 41.1 68.4 47 50.5 63.5"/><polygon points="25.3 77.3 47.1 71.6 39.8 94.7"/><polygon points="24.9 119.3 41 103.4 46.2 127.1"/><polygon points="45.6 155.9 51.5 134.1 68 152"/><polygon points="81.8 177.2 76.1 155.4 99.2 162.7"/><polygon points="123.8 177.6 107.9 161.5 131.6 156.3"/><polygon points="160.4 156.9 138.6 151 156.5 134.5"/><polygon points="181.7 120.7 159.9 126.4 167.2 103.3"/><polygon points="182.1 78.7 166 94.6 160.8 70.9"/><polygon points="161.4 42.1 155.5 63.9 139 46"/><polygon points="125.2 20.8 130.9 42.6 107.8 35.3"/></g></svg>
